<svg width="254" height="130" viewBox="0 0 254 130" fill="none" xmlns="http://www.w3.org/2000/svg">
<rect x="1.5" y="1.5" width="127" height="127" stroke="#007AFF" stroke-width="3"/>
<mask id="mask0_4_14" style="mask-type:alpha" maskUnits="userSpaceOnUse" x="0" y="0" width="130" height="130">
<rect x="1.5" y="1.5" width="127" height="127" stroke="#1E1E1E" stroke-width="3"/>
</mask>
<g mask="url(#mask0_4_14)">
<rect x="91" y="26" width="78" height="78" fill="#F9F9F9"/>
</g>
<path d="M60.76 56H53.496V33.024H60.76C68.088 33.024 72.312 37.696 72.312 44.416C72.312 51.04 67.928 56 60.76 56ZM57.016 36.064V52.96H60.6C65.88 52.96 68.728 49.696 68.728 44.416C68.728 39.232 65.912 36.064 60.6 36.064H57.016ZM86.332 56.48C79.676 56.48 74.652 51.264 74.652 44.48C74.652 37.696 79.676 32.544 86.332 32.544C92.988 32.544 98.012 37.696 98.012 44.48C98.012 51.264 92.988 56.48 86.332 56.48ZM86.332 53.312C91.196 53.312 94.364 49.408 94.364 44.48C94.364 39.552 91.196 35.712 86.332 35.712C81.468 35.712 78.3 39.552 78.3 44.48C78.3 49.408 81.468 53.312 86.332 53.312ZM111.668 56.48C105.268 56.48 100.308 51.264 100.308 44.48C100.308 37.728 105.268 32.544 111.668 32.544C117.428 32.544 122.036 36.384 122.9 42.048H119.156C118.516 38.336 115.508 35.712 111.7 35.712C107.156 35.712 103.956 39.392 103.956 44.48C103.956 49.632 107.156 53.312 111.7 53.312C115.508 53.312 118.516 50.656 119.156 46.944H122.9C122.036 52.64 117.428 56.48 111.668 56.48ZM144.255 33.024V47.744C144.255 53.024 140.863 56.48 135.359 56.48C129.855 56.48 126.495 53.024 126.495 47.744V33.024H130.015V47.84C130.015 51.168 131.967 53.312 135.359 53.312C138.783 53.312 140.735 51.168 140.735 47.84V33.024H144.255ZM165.952 49.28C165.952 53.28 162.752 56.32 157.184 56.32C151.648 56.32 148.288 53.28 148 48.704H151.584C151.744 51.616 153.6 53.504 157.12 53.504C160.032 53.504 162.208 52.128 162.208 49.76C162.208 47.84 160.96 46.88 158.304 46.304L154.976 45.664C151.744 45.024 148.8 43.392 148.8 39.488C148.8 35.616 152.192 32.704 156.96 32.704C161.728 32.704 165.344 35.616 165.632 40.192H162.048C161.856 37.44 159.872 35.52 156.992 35.52C154.016 35.52 152.384 37.28 152.384 39.264C152.384 41.44 154.272 42.208 156.416 42.656L159.808 43.328C163.744 44.128 165.952 45.856 165.952 49.28ZM173.547 56H170.027V33.024H173.547V42.624H185.195V33.024H188.715V56H185.195V45.696H173.547V56ZM209.523 56L207.443 50.304H197.523L195.411 56H191.859L200.659 33.024H204.531L213.267 56H209.523ZM202.515 36.864L198.579 47.456H206.387L202.515 36.864ZM219.954 56H216.434V33.024H225.01C230.29 33.024 233.458 35.616 233.458 40.192C233.458 43.488 231.378 46.016 227.89 46.848L234.13 56H229.906L224.178 47.36H219.954V56ZM219.954 35.968V44.416H224.786C228.05 44.416 229.906 42.976 229.906 40.192C229.906 37.44 228.05 35.968 224.786 35.968H219.954ZM252.087 52.928V56H237.527V33.024H251.863V36.096H241.047V42.624H250.903V45.696H241.047V52.928H252.087ZM69.304 99L67.224 93.304H57.304L55.192 99H51.64L60.44 76.024H64.312L73.048 99H69.304ZM62.296 79.864L58.36 90.456H66.168L62.296 79.864ZM79.7348 99H76.2148V76.024H79.7348V99ZM98.6663 99H91.4023V76.024H98.6663C105.994 76.024 110.218 80.696 110.218 87.416C110.218 94.04 105.834 99 98.6663 99ZM94.9223 79.064V95.96H98.5063C103.786 95.96 106.634 92.696 106.634 87.416C106.634 82.232 103.818 79.064 98.5063 79.064H94.9223ZM128.462 95.928V99H113.902V76.024H128.238V79.096H117.422V85.624H127.278V88.696H117.422V95.928H128.462ZM143.086 99L135.822 81.432V99H132.59V76.024H136.91L144.622 94.68L152.302 76.024H156.654V99H153.39V81.4L146.094 99H143.086ZM171.957 99.48C165.301 99.48 160.277 94.264 160.277 87.48C160.277 80.696 165.301 75.544 171.957 75.544C178.613 75.544 183.637 80.696 183.637 87.48C183.637 94.264 178.613 99.48 171.957 99.48ZM171.957 96.312C176.821 96.312 179.989 92.408 179.989 87.48C179.989 82.552 176.821 78.712 171.957 78.712C167.093 78.712 163.925 82.552 163.925 87.48C163.925 92.408 167.093 96.312 171.957 96.312Z" fill="#1E1E1E"/>
</svg>
